<?xml version="1.0" standalone="no"?><!DOCTYPE svg PUBLIC "-//W3C//DTD SVG 1.1//EN" "http://www.w3.org/Graphics/SVG/1.1/DTD/svg11.dtd"><svg t="1756559342687" class="icon" viewBox="0 0 1024 1024" version="1.1" xmlns="http://www.w3.org/2000/svg" p-id="1649" xmlns:xlink="http://www.w3.org/1999/xlink" width="48" height="48"><path d="M202.816 938.666667H160A74.666667 74.666667 0 0 1 85.333333 864v-704A74.666667 74.666667 0 0 1 160 85.333333h704A74.666667 74.666667 0 0 1 938.666667 160v704a74.666667 74.666667 0 0 1-70.570667 74.56L864 938.666667H202.816zM864 149.333333h-704a10.666667 10.666667 0 0 0-10.666667 10.666667v704a10.666667 10.666667 0 0 0 10.666667 10.666667h56.810667c1.770667-2.24 3.690667-4.394667 5.76-6.464l407.296-407.296a74.666667 74.666667 0 0 1 105.6 0L874.666667 600.106667V160a10.666667 10.666667 0 0 0-10.666667-10.666667z m-188.885333 356.821334L306.602667 874.666667H864a10.666667 10.666667 0 0 0 10.666667-10.666667v-173.397333l-184.448-184.448a10.666667 10.666667 0 0 0-15.104 0zM384 256a128 128 0 1 1 0 256 128 128 0 0 1 0-256z m0 64a64 64 0 1 0 0 128 64 64 0 0 0 0-128z" fill="#2c2c2c" p-id="1650"></path></svg>