<?xml version="1.0" standalone="no"?><!DOCTYPE svg PUBLIC "-//W3C//DTD SVG 1.1//EN" "http://www.w3.org/Graphics/SVG/1.1/DTD/svg11.dtd"><svg t="1757753382550" class="icon" viewBox="0 0 1024 1024" version="1.1" xmlns="http://www.w3.org/2000/svg" p-id="8750" xmlns:xlink="http://www.w3.org/1999/xlink" width="48" height="48"><path d="M64.3 874.8v62.6c0 4.8 3.9 8.7 8.7 8.7h878c4.8 0 8.7-3.9 8.7-8.7v-62.6c0-4.8-3.9-8.7-8.7-8.7H73c-4.8 0-8.7 3.9-8.7 8.7zM483.2 774.9c3.2 2.9 6.8 5.3 10.9 7.1 5.2 2.3 10.7 3.4 16.1 3.4 9.8 0 19.5-3.6 27-10.5l291.4-270.4c3.5-3.2 3.7-8.7 0.5-12.2l-42.3-46.2c-3.3-3.6-8.8-3.8-12.3-0.5L550.2 654.5v-528c0-4.8-3.9-8.7-8.7-8.7h-62.6c-4.8 0-8.7 3.9-8.7 8.7v527.9L239.6 442.9c-3.5-3.2-9-3-12.3 0.5L185 489.7c-3.2 3.5-3 9 0.5 12.3l297.7 272.9z" fill="#2c2c2c" p-id="8751"></path></svg>