<?xml version="1.0" standalone="no"?><!DOCTYPE svg PUBLIC "-//W3C//DTD SVG 1.1//EN" "http://www.w3.org/Graphics/SVG/1.1/DTD/svg11.dtd"><svg t="1757752857527" class="icon" viewBox="0 0 1024 1024" version="1.1" xmlns="http://www.w3.org/2000/svg" p-id="1736" xmlns:xlink="http://www.w3.org/1999/xlink" width="48" height="48"><path d="M232.5 220.7c40.1 0 72.9 32.7 72.9 72.9 0 40.1-32.7 72.9-72.9 72.9-40.2-0.1-72.8-32.6-72.9-72.9 0.1-40.1 32.7-72.9 72.9-72.9m0-54.6c-70.4 0-127.5 57-127.5 127.4S162 421 232.4 421s127.5-57 127.5-127.4c0.1-70.4-57-127.5-127.4-127.5z m561 54.6c40.2 0 72.9 32.7 72.9 72.9 0 40.1-32.7 72.9-72.9 72.9-40.2-0.1-72.8-32.6-72.9-72.9 0-40.1 32.7-72.9 72.9-72.9m0-54.6c-45.5 0-87.6 24.3-110.4 63.7-22.8 39.4-22.8 88 0 127.5C705.9 396.7 748 421 793.5 421c70.4 0 127.5-57.1 127.5-127.5-0.1-70.3-57.1-127.4-127.5-127.4zM513 712.4c38.9 1.8 69.5 33.9 69.5 72.9 0 39-30.6 71-69.5 72.9-40.2-0.1-72.8-32.6-72.9-72.9 0.1-40.2 32.7-72.8 72.9-72.9m0-54.6c-70.4 0-127.5 57.1-127.5 127.5S442.6 912.8 513 912.8c33.8 0 66.2-13.4 90.1-37.3 23.9-23.9 37.3-56.3 37.3-90.1s-13.4-66.3-37.3-90.2c-23.9-24-56.3-37.4-90.1-37.4z m0 0" fill="#231815" p-id="1737"></path><path d="M301.6 777.4c-6.2 0-12.1-2.1-16.9-5.9C196.3 702 144.8 595.7 145 483.3c0-36.6 5.4-72.7 16-107.4 4.4-14.4 19.7-22.5 34.1-18.1 14.4 4.4 22.5 19.7 18.1 34.1-9 29.6-13.6 60.4-13.6 91.3 0 96.1 43.3 185.5 118.9 245.4 9.1 7.2 12.6 19.4 8.8 30.4-3.8 11-14.1 18.4-25.7 18.4z m325.2 53.1c-13.2-0.1-24.4-9.7-26.7-22.7-2.3-13 5.1-25.8 17.5-30.4 124.1-44.7 206.8-162.3 207-294.2 0-15.1 12.2-27.3 27.3-27.3 15.1 0 27.3 12.2 27.3 27.3-0.2 154.9-97.5 293.1-243.2 345.6-2.9 1.2-6 1.7-9.2 1.7z m100.1-587.2c-6.3 0-12.4-2.2-17.3-6.2-83.8-68.4-203.2-88.2-303.9-51.7-14 4.3-28.8-3.1-33.8-16.8-5-13.7 1.7-29 15.2-34.6 118.4-43 258.7-19.7 357.1 60.7 8.9 7.3 12.3 19.5 8.4 30.3-3.9 11-14.2 18.3-25.7 18.3z m0 0" fill="#231815" p-id="1738"></path></svg>