<?xml version="1.0" standalone="no"?><!DOCTYPE svg PUBLIC "-//W3C//DTD SVG 1.1//EN" "http://www.w3.org/Graphics/SVG/1.1/DTD/svg11.dtd"><svg t="1757753158091" class="icon" viewBox="0 0 1024 1024" version="1.1" xmlns="http://www.w3.org/2000/svg" p-id="1748" xmlns:xlink="http://www.w3.org/1999/xlink" width="48" height="48"><path d="M384 736h256c17.7 0 32 14.3 32 32s-14.3 32-32 32H384c-17.7 0-32-14.3-32-32s14.3-32 32-32zM384 576h256c17.7 0 32 14.3 32 32s-14.3 32-32 32H384c-17.7 0-32-14.3-32-32s14.3-32 32-32z" p-id="1749"></path><path d="M832 321.5c17.7 0 32-14.3 32-32s-14.3-32-32-32H192c-17.7 0-32 14.3-32 32s14.3 32 32 32h32v574c0 35.3 28.7 64 64 64h448c35.3 0 64-28.7 64-64v-574h32z m-128 574H320c-17.7 0-32-14.3-32-32v-542h448v542c0 17.7-14.3 32-32 32z" p-id="1750"></path><path d="M896 64.5H128c-35.3 0-64 28.7-64 64v256c0 35.3 28.7 64 64 64h32c17.7 0 32-14.3 32-32s-14.3-32-32-32-32-14.3-32-32v-192c0-17.7 14.3-32 32-32h704c17.7 0 32 14.3 32 32v192c0 17.7-14.3 32-32 32s-32 14.3-32 32 14.3 32 32 32h32c35.3 0 64-28.7 64-64v-256c0-35.3-28.7-64-64-64z" p-id="1751"></path><path d="M384 479.5h256c17.7 0 32-14.3 32-32s-14.3-32-32-32H384c-17.7 0-32 14.3-32 32s14.3 32 32 32z" p-id="1752"></path></svg>