<?xml version="1.0" standalone="no"?><!DOCTYPE svg PUBLIC "-//W3C//DTD SVG 1.1//EN" "http://www.w3.org/Graphics/SVG/1.1/DTD/svg11.dtd"><svg t="1757752667168" class="icon" viewBox="0 0 1026 1024" version="1.1" xmlns="http://www.w3.org/2000/svg" p-id="18902" xmlns:xlink="http://www.w3.org/1999/xlink" width="48.09375" height="48"><path d="M514.14528 956.65152a23.07584 23.07584 0 0 1-12.07808-3.42016 23.32672 23.32672 0 0 1-7.6288-7.63392L53.83168 391.68c-10.55744-16.22016-11.9552-36.08576-3.92192-53.376l128.78336-242.09408a57.40544 57.40544 0 0 1 46.16704-27.60192l590.28992-0.00512a56.8064 56.8064 0 0 1 45.7216 27.46368l128.74752 246.85056c7.58272 17.83296 5.48352 37.69344-5.51936 53.3504l-2.2784 3.24096-0.19456-0.2304-407.13728 499.68128v5.51424h-6.91712l-33.90976 41.45664c-4.00896 6.58432-11.392 10.71616-19.51744 10.72128z m46.1824-145.09056l361.71264-441.73824h-186.24l-175.47264 441.73824z m-92.5184-5.376L295.4496 369.82272H119.27552l348.53376 436.36224z m46.9504-55.88992l151.28064-380.48768H362.33728l152.4224 380.48768z m378.58304-445.55264l-73.75872-144.83456-58.88512 144.83456h132.64384z m-250.74176 0l-126.06976-168.84224L390.48192 304.7424h252.11904z m-373.1968 0L215.14752 166.3488 141.59872 304.7424h127.80544z m64.98816-10.89536l117.7344-160.08704h-184.1664l66.432 160.08704z m361.99936-4.75648l63.4368-155.33056h-177.57184l114.13504 155.33056z" p-id="18903"></path></svg>