<?xml version="1.0" standalone="no"?><!DOCTYPE svg PUBLIC "-//W3C//DTD SVG 1.1//EN" "http://www.w3.org/Graphics/SVG/1.1/DTD/svg11.dtd"><svg t="1757752044238" class="icon" viewBox="0 0 1024 1024" version="1.1" xmlns="http://www.w3.org/2000/svg" p-id="1669" xmlns:xlink="http://www.w3.org/1999/xlink" width="48" height="48"><path d="M439.466667 866.133333c-34.133333 0-64-29.866667-64-64v-55.466666c0-34.133333 29.866667-64 64-64h366.933333c34.133333 0 64 29.866667 64 64v55.466666c0 34.133333-29.866667 64-64 64h-366.933333z m-8.533334-51.2h384v-72.533333h-384v72.533333z m-209.066666-21.333333c-34.133333 0-59.733333-25.6-64-59.733333V294.4c0-34.133333 25.6-59.733333 59.733333-64h76.8c8.533333 0 12.8 4.266667 21.333333 8.533333 4.266667 4.266667 4.266667 12.8 4.266667 17.066667 0 12.8-8.533333 25.6-25.6 25.6H213.333333v200.533333h81.066667c17.066667 0 25.6 12.8 25.6 25.6s-8.533333 25.6-25.6 25.6h-85.333333v200.533334h81.066666c8.533333 0 12.8 4.266667 21.333334 8.533333 4.266667 4.266667 8.533333 12.8 8.533333 21.333333 0 12.8-8.533333 25.6-25.6 25.6H221.866667z m217.6-187.733333c-34.133333 0-64-29.866667-64-64v-55.466667c0-34.133333 29.866667-64 64-64h366.933333c34.133333 0 64 29.866667 64 64v55.466667c0 34.133333-29.866667 64-64 64h-366.933333z m-8.533334-55.466667h384v-72.533333h-384v72.533333z m8.533334-209.066667c-34.133333 0-64-29.866667-64-64V221.866667c0-34.133333 29.866667-64 64-64h366.933333c34.133333 0 64 29.866667 64 64v55.466666c0 34.133333-29.866667 64-64 64h-366.933333z m-8.533334-55.466666h384V209.066667h-384v76.8z" p-id="1670" fill="#2c2c2c"></path></svg>