<?xml version="1.0" standalone="no"?><!DOCTYPE svg PUBLIC "-//W3C//DTD SVG 1.1//EN" "http://www.w3.org/Graphics/SVG/1.1/DTD/svg11.dtd"><svg t="1757752231953" class="icon" viewBox="0 0 1024 1024" version="1.1" xmlns="http://www.w3.org/2000/svg" p-id="4187" xmlns:xlink="http://www.w3.org/1999/xlink" width="48" height="48"><path d="M170.666667 341.333333h682.666666V213.333333H170.666667v128z m426.666666 469.333334v-384h-170.666666v384h170.666666z m85.333334 0h170.666666v-384h-170.666666v384z m-341.333334 0v-384H170.666667v384h170.666666zM128 128h768a42.666667 42.666667 0 0 1 42.666667 42.666667v682.666666a42.666667 42.666667 0 0 1-42.666667 42.666667H128a42.666667 42.666667 0 0 1-42.666667-42.666667V170.666667a42.666667 42.666667 0 0 1 42.666667-42.666667z" fill="#2c2c2c" p-id="4188"></path></svg>