<?xml version="1.0" standalone="no"?><!DOCTYPE svg PUBLIC "-//W3C//DTD SVG 1.1//EN" "http://www.w3.org/Graphics/SVG/1.1/DTD/svg11.dtd"><svg t="1757752123486" class="icon" viewBox="0 0 1024 1024" version="1.1" xmlns="http://www.w3.org/2000/svg" p-id="1705" xmlns:xlink="http://www.w3.org/1999/xlink" width="48" height="48"><path d="M684.334317 856.63815l-171.357226 93.817341-172.689017-93.817341A34.330636 34.330636 0 0 0 307.437207 917.456647L496.255704 1019.708671a34.034682 34.034682 0 0 0 32.850867 0L717.185184 917.456647a34.330636 34.330636 0 0 0 1.479769-59.190751 33.886705 33.886705 0 0 0-34.330636-0.887861z m27.523699-643.551445l167.213873 102.695954 4.73526 195.77341a34.330636 34.330636 0 1 0 68.513295 0l-5.327168-216.046242a33.886705 33.886705 0 0 0-16.277456-29.151445L747.816398 154.339884a34.182659 34.182659 0 1 0-35.662428 58.302891zM106.336629 544.554913A34.182659 34.182659 0 0 0 141.111195 510.224277l4.883237-195.77341L312.764375 211.606936a34.182659 34.182659 0 1 0-35.218498-57.267052L93.906571 266.358382a33.886705 33.886705 0 0 0-17.017341 28.41156l-4.883237 214.566474A34.478613 34.478613 0 0 0 81.920444 534.196532a33.886705 33.886705 0 0 0 24.564162 10.358381z" fill="#2c2c2c" p-id="1706"></path><path d="M918.285762 603.153757a137.174566 137.174566 0 0 0-166.178035 22.492486l-205.539884-118.381503v-236.763006a137.02659 137.02659 0 1 0-68.513295 0v236.763006l-205.539884 118.381503a135.694798 135.694798 0 1 0 34.478612 59.190751l205.687862-118.381503 205.24393 118.381503a136.730636 136.730636 0 1 0 200.212717-81.979191zM443.723912 137.174566a68.513295 68.513295 0 1 1 68.513295 68.513295 68.513295 68.513295 0 0 1-68.513295-68.513295zM240.995588 739.884393a68.513295 68.513295 0 1 1-6.954913-51.939884 67.32948 67.32948 0 0 1 6.954913 51.939884z m667.96763 17.165318A68.513295 68.513295 0 0 1 783.478825 739.884393a67.033526 67.033526 0 0 1 6.806937-51.347977 68.513295 68.513295 0 1 1 118.381503 68.513295z" fill="#2c2c2c" p-id="1707"></path></svg>